<?xml version="1.0" encoding="UTF-8"?>
<!DOCTYPE svg PUBLIC "-//W3C//DTD SVG 1.1//EN" "http://www.w3.org/Graphics/SVG/1.1/DTD/svg11.dtd">
<svg xmlns="http://www.w3.org/2000/svg" version="1.1" width="365px" height="90px" style="shape-rendering:geometricPrecision; text-rendering:geometricPrecision; image-rendering:optimizeQuality; fill-rule:evenodd; clip-rule:evenodd" xmlns:xlink="http://www.w3.org/1999/xlink">
<g><path style="opacity:0.979" fill="#d6e1fd" d="M 44.5,-0.5 C 50.1667,-0.5 55.8333,-0.5 61.5,-0.5C 84.3893,7.93039 93.2226,24.2637 88,48.5C 78.3376,68.7458 62.5043,76.2458 40.5,71C 21.0292,61.8924 13.3625,46.7258 17.5,25.5C 27.0702,28.1485 36.7368,30.9818 46.5,34C 51.8581,36.3535 56.3581,39.8535 60,44.5C 56.9098,35.7503 50.7431,29.917 41.5,27C 34.7455,24.3731 27.7455,22.7064 20.5,22C 19.944,21.6174 19.6107,21.1174 19.5,20.5C 19.8333,19.8333 20.1667,19.1667 20.5,18.5C 29.3719,20.1862 38.0385,22.3528 46.5,25C 43.681,22.425 40.681,20.0917 37.5,18C 32.8082,16.2869 28.4748,14.1203 24.5,11.5C 30.2842,5.94483 36.9509,1.94483 44.5,-0.5 Z"/></g>
<g><path style="opacity:0.963" fill="#544f91" d="M 24.5,11.5 C 28.4748,14.1203 32.8082,16.2869 37.5,18C 40.681,20.0917 43.681,22.425 46.5,25C 38.0385,22.3528 29.3719,20.1862 20.5,18.5C 17.8127,18.6641 15.146,18.4974 12.5,18C 11.8333,17 11.1667,16 10.5,15C 7.21207,13.4183 3.87874,12.085 0.5,11C 8.52277,10.3435 16.5228,10.5101 24.5,11.5 Z"/></g>
<g><path style="opacity:0.016" fill="#3f3f7f" d="M 317.5,14.5 C 318.833,15.1667 318.833,15.1667 317.5,14.5 Z"/></g>
<g><path style="opacity:0.989" fill="#565293" d="M 19.5,20.5 C 19.6107,21.1174 19.944,21.6174 20.5,22C 27.7455,22.7064 34.7455,24.3731 41.5,27C 50.7431,29.917 56.9098,35.7503 60,44.5C 56.3581,39.8535 51.8581,36.3535 46.5,34C 36.7368,30.9818 27.0702,28.1485 17.5,25.5C 13.1113,21.5081 13.7779,19.8415 19.5,20.5 Z"/></g>
<g><path style="opacity:1" fill="#5c588e" d="M 209.5,20.5 C 210.721,21.0283 211.887,21.695 213,22.5C 213.667,32.1667 213.667,41.8333 213,51.5C 211.806,53.5254 210.306,53.8587 208.5,52.5C 208.167,47.3333 207.833,42.1667 207.5,37C 207.549,31.2559 208.216,25.7559 209.5,20.5 Z"/></g>
<g><path style="opacity:1" fill="#615d8c" d="M 137.5,22.5 C 141.269,23.4237 142.269,25.5904 140.5,29C 136.494,29.9874 134.661,28.4874 135,24.5C 135.995,23.9341 136.828,23.2674 137.5,22.5 Z"/></g>
<g><path style="opacity:1" fill="#5e5a8d" d="M 117.5,23.5 C 120.607,23.3512 123.607,23.8512 126.5,25C 129.346,25.8793 130.013,27.5459 128.5,30C 126.134,30.5625 123.801,30.3958 121.5,29.5C 118.707,29.8156 116.374,30.9822 114.5,33C 118.727,34.1446 123.061,35.1446 127.5,36C 132.343,40.3796 132.677,45.0462 128.5,50C 121.644,54.0676 114.644,54.4009 107.5,51C 104.505,47.7631 104.838,45.2631 108.5,43.5C 110.951,45.29 113.618,46.6234 116.5,47.5C 119.387,47.373 121.887,46.373 124,44.5C 124.684,43.2161 124.517,42.0495 123.5,41C 119.814,40.4412 116.147,39.7745 112.5,39C 108.21,36.4693 107.377,32.9693 110,28.5C 112.17,26.1769 114.67,24.5103 117.5,23.5 Z"/></g>
<g><path style="opacity:1" fill="#5c588e" d="M 316.5,52.5 C 316.5,47.1667 316.5,41.8333 316.5,36.5C 315.5,36.5 314.5,36.5 313.5,36.5C 310.09,36.6162 308.756,34.9496 309.5,31.5C 311.604,31.7989 313.604,31.4656 315.5,30.5C 314.451,25.0429 316.284,23.7096 321,26.5C 321.333,28.1667 321.667,29.8333 322,31.5C 323.626,31.1459 325.459,31.1459 327.5,31.5C 327.785,33.288 327.452,34.9547 326.5,36.5C 324.899,37.1654 323.399,37.4988 322,37.5C 321.501,40.5182 321.668,43.5182 322.5,46.5C 322.308,48.5767 321.808,50.5767 321,52.5C 319.384,53.8009 317.884,53.8009 316.5,52.5 Z"/></g>
<g><path style="opacity:1" fill="#575394" d="M 20.5,30.5 C 32.0977,32.088 43.0977,35.588 53.5,41C 57.0364,44.2012 60.2031,47.7012 63,51.5C 66.4318,61.5534 65.7652,61.8867 61,52.5C 59.1667,50.6667 57.3333,48.8333 55.5,47C 46.2728,43.6927 36.9395,40.6927 27.5,38C 24.2608,36.2636 21.9274,33.7636 20.5,30.5 Z"/></g>
<g><path style="opacity:1" fill="#5d598d" d="M 165.5,30.5 C 167.677,30.5861 169.677,31.2528 171.5,32.5C 174.937,30.9216 178.104,31.255 181,33.5C 182.189,38.91 183.023,44.41 183.5,50C 183.233,53.1642 181.567,54.1642 178.5,53C 177.874,52.2496 177.374,51.4162 177,50.5C 176.828,46.1289 176.328,41.7956 175.5,37.5C 173.803,38.3636 172.637,39.6969 172,41.5C 170.927,45.0836 170.26,48.7502 170,52.5C 168.333,53.8333 166.667,53.8333 165,52.5C 164.204,45.0869 164.37,37.7535 165.5,30.5 Z"/></g>
<g><path style="opacity:1" fill="#5f5a8d" d="M 239.5,30.5 C 242.238,29.9648 244.072,30.9648 245,33.5C 248,30.8333 251,30.8333 254,33.5C 256.153,31.5561 258.653,31.0561 261.5,32C 263.333,32.5 264.5,33.6667 265,35.5C 266.468,41.3708 266.968,47.2042 266.5,53C 264.741,53.7975 263.074,53.6309 261.5,52.5C 260.744,47.4603 259.744,42.4603 258.5,37.5C 257.522,37.9767 256.689,38.6433 256,39.5C 255.836,44.1786 255.836,48.8453 256,53.5C 253.733,54.9348 251.733,54.6015 250,52.5C 248.911,34.0746 247.077,34.0746 244.5,52.5C 242.533,52.7394 240.699,52.4061 239,51.5C 238.24,44.4505 238.407,37.4505 239.5,30.5 Z"/></g>
<g><path style="opacity:1" fill="#5e598e" d="M 291.5,30.5 C 293.677,30.5861 295.677,31.2528 297.5,32.5C 300.937,30.9216 304.104,31.255 307,33.5C 308.189,38.91 309.023,44.41 309.5,50C 308.326,54.0015 306.16,54.5015 303,51.5C 302.828,46.7982 302.328,42.1315 301.5,37.5C 299.803,38.3636 298.637,39.6969 298,41.5C 296.927,45.0836 296.26,48.7502 296,52.5C 294.333,53.8333 292.667,53.8333 291,52.5C 290.296,50.7216 289.796,48.8882 289.5,47C 290.092,41.4413 290.759,35.9413 291.5,30.5 Z"/></g>
<g><path style="opacity:1" fill="#5d598d" d="M 135.5,31.5 C 137.144,31.2865 138.644,31.6198 140,32.5C 140.667,38.8333 140.667,45.1667 140,51.5C 138.333,52.8333 136.667,52.8333 135,51.5C 133.63,44.8346 133.797,38.1679 135.5,31.5 Z"/></g>
<g><path style="opacity:1" fill="#5d598d" d="M 154.5,31.5 C 158.567,31.9011 161.567,33.9011 163.5,37.5C 162.333,44.4994 161.167,51.4994 160,58.5C 158.786,60.0488 157.286,61.2155 155.5,62C 151.833,62.6667 148.167,62.6667 144.5,62C 142.473,60.6043 142.14,58.9376 143.5,57C 146.486,57.1276 149.486,57.1276 152.5,57C 154.032,56.3005 155.032,55.1338 155.5,53.5C 146.196,54.3608 142.03,50.0275 143,40.5C 144.983,35.0051 148.817,32.0051 154.5,31.5 Z M 152.5,37.5 C 153.833,37.5 155.167,37.5 156.5,37.5C 157.437,42.2951 155.77,45.6284 151.5,47.5C 148.024,45.536 147.524,42.8693 150,39.5C 150.995,38.9341 151.828,38.2674 152.5,37.5 Z"/></g>
<g><path style="opacity:1" fill="#5c588d" d="M 192.5,31.5 C 201.343,30.1691 204.676,33.6691 202.5,42C 202.857,44.9036 203.523,47.737 204.5,50.5C 203.365,54.0387 201.532,54.372 199,51.5C 194.176,54.337 189.843,53.6703 186,49.5C 182.428,41.2833 184.595,35.2833 192.5,31.5 Z M 193.5,37.5 C 194.5,37.5 195.5,37.5 196.5,37.5C 196.198,40.0593 196.532,42.3926 197.5,44.5C 197.586,45.4959 197.252,46.3292 196.5,47C 190.92,48.261 189.087,46.0943 191,40.5C 192.045,39.6266 192.878,38.6266 193.5,37.5 Z"/></g>
<g><path style="opacity:1" fill="#5e5a8d" d="M 223.5,31.5 C 227.634,30.9429 231.301,31.9429 234.5,34.5C 235.485,36.0983 235.651,37.765 235,39.5C 231.574,42.4648 227.741,44.7982 223.5,46.5C 224.667,46.8333 225.833,47.1667 227,47.5C 229.871,46.7907 232.705,46.2907 235.5,46C 236.772,48.0445 236.439,49.8778 234.5,51.5C 218.66,55.4949 213.494,49.8282 219,34.5C 220.652,33.6006 222.152,32.6006 223.5,31.5 Z M 223.5,39.5 C 224.314,37.7274 225.648,37.2274 227.5,38C 226.255,38.7914 224.922,39.2914 223.5,39.5 Z"/></g>
<g><path style="opacity:1" fill="#5f5b8d" d="M 274.5,31.5 C 278.96,30.8847 282.96,31.8847 286.5,34.5C 287.485,36.0983 287.651,37.765 287,39.5C 283.55,42.4743 279.717,44.8076 275.5,46.5C 276.5,46.8333 277.5,47.1667 278.5,47.5C 281.436,46.3512 284.436,45.8512 287.5,46C 288.876,48.5402 288.21,50.5402 285.5,52C 279.272,54.2345 273.772,53.0679 269,48.5C 266.77,41.4533 268.603,35.7866 274.5,31.5 Z M 276.5,37.5 C 280.339,37.6121 280.339,38.2787 276.5,39.5C 275.537,39.0302 275.537,38.3635 276.5,37.5 Z"/></g>
<g><path style="opacity:0.548" fill="#777388" d="M 313.5,36.5 C 314.5,36.5 315.5,36.5 316.5,36.5C 316.5,41.8333 316.5,47.1667 316.5,52.5C 316.064,47.0613 315.064,41.728 313.5,36.5 Z"/></g>
<g><path style="opacity:0.247" fill="#757484" d="M 193.5,37.5 C 194.568,36.5655 195.901,36.2322 197.5,36.5C 197.5,39.1667 197.5,41.8333 197.5,44.5C 196.532,42.3926 196.198,40.0593 196.5,37.5C 195.5,37.5 194.5,37.5 193.5,37.5 Z"/></g>
<g><path style="opacity:0.304" fill="#4c478b" d="M 131.5,56.5 C 131.517,54.9719 132.184,54.4719 133.5,55C 132.956,55.7172 132.289,56.2172 131.5,56.5 Z"/></g>
<g><path style="opacity:0.004" fill="#000000" d="M 131.5,56.5 C 130.833,57.1667 130.833,57.1667 131.5,56.5 Z"/></g>
</svg>
